# AST/ASF file generated using VICON BodyLanguage
# -----------------------------------------------
:version 1.10
:name VICON
:units
  mass 1.0
  length 0.45
  angle deg
:documentation
   .ast/.asf automatically generated from VICON data using
   VICON BodyBuilder and BodyLanguage model FoxedUp or BRILLIANT.MOD
:root
   order TX TY TZ RX RY RZ
   axis XYZ
   position 0 0 0  
   orientation 0 -0 0 
:bonedata
  begin
     id 1 
     name lhipjoint
     direction 0.432694 -0.693742 0.575759 
     length 2.19277 
     axis 0 -0 0  XYZ
  end
  begin
     id 2 
     name lfemur
     direction 0.34202 -0.939693 0  
     length 6.69022  
     axis 0 -0 20  XYZ
    dof rx ry rz
    limits (-160.0 20.0)
           (-70.0 70.0)
           (-60.0 70.0)
  end
  begin
     id 3 
     name ltibia
     direction 0.34202 -0.939693 0   
     length 6.50337   
     axis 0 -0 20   XYZ
    dof rx
    limits (-10.0 170.0)
  end
  begin
     id 4 
     name lfoot
     direction 0.158999 -0.435969 0.885805   
     length 2.70564   
     axis -90 -1.13533e-015 20   XYZ
    dof rx rz
    limits (-45.0 90.0)
           (-70.0 20.0)
  end
  begin
     id 5 
     name ltoes
     direction -0.00592919 0.00964381 0.999936   
     length 1.29929   
     axis -90 -1.13533e-015 20   XYZ
    dof rx
    limits (-90.0 20.0)
  end
  begin
     id 6 
     name rhipjoint
     direction -0.414359 -0.700339 0.581234   
     length 2.17212  
     axis 0 -0 0  XYZ 
  end
  begin
     id 7 
     name rfemur
     direction -0.34202 -0.939693 0   
     length 7.17659   
     axis 0 -0 -20   XYZ
    dof rx ry rz
    limits (-160.0 20.0)
           (-70.0 70.0)
           (-70.0 60.0)
  end
  begin
     id 8 
     name rtibia
     direction -0.34202 -0.939693 0   
     length 6.36669   
     axis 0 -0 -20   XYZ
    dof rx
    limits (-10.0 170.0)
 end
 begin
     id 9 
     name rfoot
     direction -0.137064 -0.37658 0.916188   
     length 2.22351  
     axis -90 1.13533e-015 -20   XYZ
    dof rx rz
    limits (-45.0 90.0)
           (-20.0 70.0)
  end
  begin
     id 10 
     name rtoes
     direction -0.000784077 -0.00289101 0.999996   
     length 1.09522   
     axis -90 1.13533e-015 -20   XYZ
    dof rx
    limits (-90.0 20.0)
  end
  begin
     id 11 
     name lowerback
     direction -0.0176242 0.984912 -0.172157   
     length 1.65301   
     axis 0 -0 0   XYZ
    dof rx ry rz
    limits (-20.0 45.0)
           (-30.0 30.0)
           (-30.0 30.0)
  end
  begin
     id 12 
     name upperback
     direction -0.00218128 0.998776 -0.0494072   
     length 1.67776   
     axis 0 -0 0   XYZ
    dof rx ry rz
    limits (-20.0 45.0)
           (-30.0 30.0)
           (-30.0 30.0)
  end
  begin
     id 13 
     name thorax
     direction 0.00544186 0.999658 0.0255711   
     length 1.72293   
     axis 0 -0 0   XYZ
    dof rx ry rz
    limits (-20.0 45.0)
           (-30.0 30.0)
           (-30.0 30.0)
  end
  begin
     id 14 
     name lowerneck
     direction -0.105325 0.983841 0.144785   
     length 2.14226   
     axis 0 -0 0   XYZ
    dof rx ry rz
    limits (-20.0 45.0)
           (-30.0 30.0)
           (-30.0 30.0)
  end
  begin
     id 15 
     name upperneck
     direction 0.0547957 0.988053 -0.144041   
     length 2.17508   
     axis 0 -0 0   XYZ
    dof rx ry rz
    limits (-20.0 45.0)
           (-30.0 30.0)
           (-30.0 30.0)
  end
  begin
     id 16
     name head
     direction 0.0247488 0.997534 -0.0656813  
     length 2.20048  
     axis 0 -0 0   XYZ
    dof rx ry rz
    limits (-20.0 45.0)
           (-30.0 30.0)
           (-30.0 30.0)
  end
  begin
     id 17 
     name lclavicle
     direction 0.820559 0.567247 -0.0701026  
     length 4.09615  
     axis 0 -0 0   XYZ
    dof ry rz
    limits (-20.0 10.0)
           (0.0 20.0)
  end
  begin
     id 18 
     name lhumerus
     direction 0.999977 -0.0067566 -9.96392e-005   
     length 4.59333   
     axis -180 -30 -90   XYZ
    dof rx ry rz
    limits (-60.0 90.0)
           (-90.0 90.0)
           (-90.0 90.0)
  end
  begin
     id 19
     name lradius
     direction 1 -4.48982e-011 -2.53425e-027   
     length 2.81151   
     axis -180 -30 -90   XYZ
    dof rx
    limits (-10.0 170.0)
  end
  begin
     id 20
     name lwrist
     direction 1 -4.48939e-011 -7.39254e-028   
     length 1.40576   
     axis 2.56395e-016 90 90   XYZ
    dof ry
    limits (-180.0 0.0)
 end
  begin
     id 21 
     name lhand
     direction 1 -4.48939e-011 -1.47851e-027   
     length 0.895651   
     axis 9.43423e-016 90 90   XYZ
    dof rx rz
    limits (-90.0 90.0)
           (-45.0 45.0)
  end
  begin
     id 22 
     name lfingers
     direction 1 -4.48978e-011 -2.95702e-027   
     length 0.722097   
     axis 1.88685e-015 90 90   XYZ
    dof rx
    limits (0.0 90.0)
  end
  begin
     id 23
     name lthumb
     direction 0.707107 -6.34931e-011 0.707107   
     length 1.03679   
     axis -90 45 -9.86935e-015   XYZ
    dof rx rz
    limits (-45.0 45.0)
           (-45.0 45.0)
  end
  begin
     id 24 
     name rclavicle
     direction -0.831414 0.553102 -0.0531864   
     length 4.24872  
     axis 0 -0 0   XYZ 
    dof ry rz
    limits (-10.0 20.0)
           (-20.0 0.0)
  end
  begin
     id 25 
     name rhumerus
     direction -0.999916 -0.000939607 0.0129331  
     length 4.74834   
     axis -180 30 90   XYZ
    dof rx ry rz
    limits (-90.0 60.0)
           (-90.0 90.0)
           (-90.0 90.0)
  end
  begin
     id 26 
     name rradius
     direction -1 -4.48956e-011 -1.31752e-027   
     length 2.79907   
     axis -180 30 90   XYZ
    dof rx
    limits (-10.0 170.0)
  end
  begin
     id 27 
     name rwrist
     direction -1 -4.4897e-011 -7.39254e-028   
     length 1.39954   
     axis 2.56395e-016 -90 -90   XYZ
    dof ry
    limits (-180.0 0.0)
  end
  begin
     id 28
     name rhand
     direction -0.999997 -0.00250697 0.000800838   
     length 0.953304   
     axis 9.43423e-016 -90 -90   XYZ
    dof rx rz
    limits (-90.0 90.0)
           (-45.0 45.0)
  end
  begin
     id 29
     name rfingers
     direction -1 -4.48954e-011 -2.95702e-027   
     length 0.763342   
     axis 1.88685e-015 -90 -90   XYZ
    dof rx
    limits (0.0 90.0)
  end
  begin
     id 30
     name rthumb
     direction -0.709701 -0.00217037 0.7045   
     length 1.10115   
     axis -90 -45 9.86935e-015   XYZ
    dof rx rz
    limits (-45.0 45.0)
           (-45.0 45.0)
  end
:hierarchy
  begin
    root lhipjoint rhipjoint lowerback
    lhipjoint lfemur
    lfemur ltibia
    ltibia lfoot
    lfoot ltoes
    rhipjoint rfemur
    rfemur rtibia
    rtibia rfoot
    rfoot rtoes
    lowerback upperback
    upperback thorax
    thorax lowerneck lclavicle rclavicle
    lowerneck upperneck
    upperneck head
    lclavicle lhumerus
    lhumerus lradius
    lradius lwrist
    lwrist lhand lthumb
    lhand lfingers
    rclavicle rhumerus
    rhumerus rradius
    rradius rwrist
    rwrist rhand rthumb
    rhand rfingers
  end

#!OML:ASF G:\ViconDB\ViconDB\414\test\team2\shane.ASF
:FULLY-SPECIFIED
:DEGREES
68
root 8.3053 16.1755 -10.6183 10.2974 -3.20106 -2.84021
lowerback 15.8419 6.67884 2.86032
upperback 5.4256 9.08902 -1.81512
thorax -2.26082 4.54526 -5.02676
lowerneck -15.0613 -8.37195 -6.56571
upperneck 26.1515 -13.3123 11.3075
head 12.4115 -5.22247 3.26981
rclavicle 5.46658e-015 -1.17283e-014
rhumerus -7.41565 15.0496 -89.4657
rradius 105.517
rwrist 35.6935
rhand -47.7966 -23.3112
rfingers 7.12502
rthumb -20.4729 -52.2519
lclavicle 5.46658e-015 -1.17283e-014
lhumerus -77.8659 -39.812 79.1846
lradius 56.6785
lwrist -5.46732
lhand -43.2115 5.88592
lfingers 7.12502
lthumb -16.062 35.2402
rfemur 32.5662 -5.03033 14.9385
rtibia -4.13472e-014
rfoot 15.5023 5.87631
rtoes -15.6541
lfemur -54.8118 16.9048 -21.7559
ltibia 58.0534
lfoot -28.3789 -11.6905
ltoes -15.0065
69
root 8.30202 16.2145 -10.1264 9.85372 -2.51508 -3.07173
lowerback 15.4166 6.49843 2.57496
upperback 5.62848 8.81505 -1.60156
thorax -1.92988 4.418 -4.53767
lowerneck -15.0984 -8.27663 -6.81871
upperneck 26.3612 -13.2235 11.6032
head 12.5398 -5.1644 3.44409
rclavicle 1.22451e-013 -4.90998e-014
rhumerus -10.2705 15.698 -88.6579
rradius 103.998
rwrist 35.474
rhand -47.7075 -22.1908
rfingers 7.12502
rthumb -20.3874 -51.1406
lclavicle 1.22451e-013 -4.90998e-014
lhumerus -77.4267 -38.5686 79.3029
lradius 58.0857
lwrist -5.90073
lhand -43.4721 5.80532
lfingers 7.12502
lthumb -16.313 35.1392
rfemur 34.1477 -4.69181 15.3102
rtibia -1.90833e-014
rfoot 18.361 5.4375
rtoes -7.02315
lfemur -53.8942 18.4038 -22.8199
ltibia 56.2065
lfoot -27.3374 -10.2102
ltoes -16.12
70
root 8.30457 16.2348 -9.65125 9.38055 -1.94446 -3.10677
lowerback 15.3716 6.2332 2.4182
upperback 5.71491 8.44289 -1.71235
thorax -1.85495 4.23751 -4.50177
lowerneck -15.1478 -8.10213 -6.63196
upperneck 26.5962 -13.1082 11.78
head 12.634 -5.06481 3.50587
rclavicle 9.82493e-014 -2.49475e-014
rhumerus -10.2705 15.698 -88.6579
rradius 103.998
rwrist 35.474
rhand -47.7075 -22.1908
rfingers 7.12502
rthumb -20.3874 -51.1406
lclavicle 9.82493e-014 -2.49475e-014
lhumerus -76.6567 -37.4666 79.3899
lradius 59.3779
lwrist -6.53267
lhand -43.5409 5.60056
lfingers 7.12502
lthumb -16.3792 34.929
rfemur 35.7345 -4.31099 15.5498
rtibia -4.77083e-014
rfoot 19.1708 3.15447
rtoes -4.95523
lfemur -52.8835 19.8236 -23.8812
ltibia 55.1422
lfoot -26.1887 -9.01442
ltoes -16.4143
71
root 8.30468 16.2242 -9.18169 8.83044 -1.05719 -3.42338
lowerback 15.3067 5.81644 2.555
upperback 5.80598 7.9227 -1.60203
thorax -1.76969 3.98437 -4.37205
lowerneck -14.7815 -7.86648 -6.96657
upperneck 26.6236 -12.8658 12.341
head 12.615 -4.94145 3.83534
rclavicle 3.6682e-015 2.33199e-014
rhumerus -16.3283 17.0121 -88.0634
rradius 99.9675
rwrist 36.114
rhand -46.7061 -21.1134
rfingers 7.12502
rthumb -19.4248 -50.1632
lclavicle 3.6682e-015 2.33199e-014
lhumerus -75.5985 -36.1604 79.8281
lradius 60.2744
lwrist -7.75345
lhand -44.1509 5.02383
lfingers 7.12502
lthumb -16.9665 34.3028
rfemur 37.4626 -4.21104 16.1493
rtibia 3.18055e-015
rfoot 19.0586 -0.460488
rtoes -6.66893
lfemur -51.5229 20.5827 -24.0269
ltibia 54.6722
lfoot -24.9223 -8.28824
ltoes -17.0379
72
root 8.3055 16.1829 -8.72339 8.39621 -0.209623 -4.02829
lowerback 15.1968 5.37279 2.8748
upperback 5.90207 7.39232 -1.46223
thorax -1.63606 3.72955 -4.30606
lowerneck -14.8246 -7.67933 -6.90922
upperneck 26.9046 -12.6988 12.4991
head 12.7274 -4.83374 3.92438
rclavicle -6.75868e-014 1.36167e-014
rhumerus -19.0113 17.185 -87.7569
rradius 96.7278
rwrist 37.4104
rhand -47.0697 -19.5463
rfingers 7.12502
rthumb -19.7743 -48.5604
lclavicle -6.75868e-014 1.36167e-014
lhumerus -74.0951 -34.8243 80.3308
lradius 61.1128
lwrist -8.8025
lhand -44.505 5.4216
lfingers 7.12502
lthumb -17.3073 34.671
rfemur 38.9234 -4.05529 17.0462
rtibia -9.54166e-015
rfoot 19.5612 -3.95862
rtoes -7.66821
lfemur -49.9886 20.8627 -23.3597
ltibia 54.642
lfoot -23.5176 -8.21887
ltoes -16.7338
73
root 8.30191 16.137 -8.2661 7.87402 0.316838 -4.37648
lowerback 15.2147 5.01107 2.77947
upperback 6.02356 6.90902 -1.36564
thorax -1.58627 3.49027 -4.07833
lowerneck -14.9078 -7.43109 -7.01662
upperneck 27.2187 -12.4529 12.8181
head 12.8785 -4.68689 4.1205
rclavicle 7.45443e-015 -1.82882e-014
rhumerus -21.7292 17.761 -87.5083
rradius 93.3471
rwrist 37.8988
rhand -47.2682 -17.853
rfingers 7.12502
rthumb -19.9651 -46.8473
lclavicle 7.45443e-015 -1.82882e-014
lhumerus -72.5149 -33.6786 81.0457
lradius 61.8372
lwrist -10.0535
lhand -45.1566 4.86967
lfingers 7.12502
lthumb -17.9343 34.0628
rfemur 35.0638 -3.79586 17.5773
rtibia 11.1541
rfoot 15.1533 -6.16506
rtoes -5.93591
lfemur -47.9386 20.7999 -22.4118
ltibia 54.7751
lfoot -22.1633 -8.93163
ltoes -16.7469
74
root 8.29514 16.0782 -7.80222 7.40991 0.936504 -4.8073
lowerback 15.0153 4.61903 2.66495
upperback 6.20669 6.38178 -1.21561
thorax -1.36517 3.23327 -3.75238
lowerneck -15.1246 -7.23735 -7.03483
upperneck 27.5566 -12.2617 12.9794
head 13.0549 -4.56779 4.2288
rclavicle -5.20816e-014 1.98785e-015
rhumerus -24.3109 18.3232 -87.3162
rradius 89.9453
rwrist 38.4994
rhand -47.0284 -17.9086
rfingers 7.12502
rthumb -19.7345 -46.9268
lclavicle -5.20816e-014 1.98785e-015
lhumerus -70.4196 -32.2504 81.6505
lradius 62.6155
lwrist -11.0557
lhand -45.4547 4.42225
lfingers 7.12502
lthumb -18.2211 33.5888
rfemur 30.866 -4.12623 17.8692
rtibia 22.5463
rfoot 11.1356 -6.51979
rtoes -4.17223
lfemur -45.576 20.2853 -21.0764
ltibia 55.0058
lfoot -21.747 -11.6516
ltoes -13.193
75
root 8.29988 16.0136 -7.34291 7.15091 1.55667 -5.24875
lowerback 14.7816 4.1563 2.74349
upperback 6.24169 5.78669 -1.12924
thorax -1.2548 2.94138 -3.59841
lowerneck -15.0876 -6.97659 -7.3161
upperneck 27.7509 -12.0149 13.5392
head 13.1638 -4.42175 4.55608
rclavicle -3.10104e-014 1.63003e-014
rhumerus -26.9436 19.223 -87.3996
rradius 86.2284
rwrist 38.2145
rhand -47.0631 -18.0024
rfingers 7.12502
rthumb -19.768 -47.0172
lclavicle -3.10104e-014 1.63003e-014
lhumerus -68.3075 -31.0302 82.4311
lradius 63.2339
lwrist -12.0326
lhand -45.8627 3.98255
lfingers 7.12502
lthumb -18.6136 33.112
rfemur 27.7901 -4.63475 18.0111
rtibia 30.5229
rfoot 9.1088 -6.24157
rtoes -4.28714
lfemur -43.4704 19.9974 -20.0096
ltibia 55.4073
lfoot -23.9623 -13.3237
ltoes -4.03365
76
root 8.30198 15.9249 -6.87861 6.89974 1.65867 -4.96891
lowerback 14.4073 3.89458 1.97172
upperback 6.35742 5.3339 -1.26646
thorax -1.031 2.71117 -3.21256
lowerneck -15.0768 -6.71721 -7.26509
upperneck 27.8147 -11.743 13.778
head 13.1671 -4.27144 4.6954
rclavicle -3.75703e-014 5.1684e-015
rhumerus -29.5131 20.2126 -87.4059
rradius 82.418
rwrist 38.0299
rhand -46.6102 -16.9018
rfingers 7.12502
rthumb -19.3325 -45.9608
lclavicle -3.75703e-014 5.1684e-015
lhumerus -65.995 -30.0489 83.1864
lradius 63.7288
lwrist -13.5684
lhand -46.4282 4.11163
lfingers 7.12502
lthumb -19.1575 33.1881
rfemur 25.202 -4.6156 17.1902
rtibia 37.4205
rfoot 7.0992 -5.9075
rtoes -4.05164
lfemur -40.9282 19.7754 -19.6317
ltibia 56.0161
lfoot -28.167 -10.9761
ltoes -4.99469
77
root 8.31712 15.8794 -6.40662 6.84335 1.82816 -4.73763
lowerback 14.0099 3.55349 1.55408
upperback 6.36774 4.82609 -1.52908
thorax -0.855844 2.45841 -3.15289
lowerneck -14.8619 -6.41637 -7.23462
upperneck 27.6942 -11.4532 14.2332
head 13.0657 -4.10543 4.9245
rclavicle -2.22639e-014 2.70347e-014
rhumerus -31.9561 20.3513 -87.7494
rradius 78.3639
rwrist 38.2841
rhand -45.9982 -16.4528
rfingers 7.12502
rthumb -18.744 -45.5697
lclavicle -2.22639e-014 2.70347e-014
lhumerus -63.4631 -29.1508 83.9736
lradius 64.3681
lwrist -14.4178
lhand -46.6322 3.92388
lfingers 7.12502
lthumb -19.3537 32.9808
rfemur 22.475 -5.07931 16.1673
rtibia 43.643
rfoot 5.33317 -4.88481
rtoes -5.91995
lfemur -39.3531 19.9861 -19.6442
ltibia 57.0546
lfoot -31.6612 -9.54011
ltoes -7.24173
